<?xml version="1.0" encoding="utf-8"?>
<!-- Generator: Adobe Illustrator 16.0.0, SVG Export Plug-In . SVG Version: 6.00 Build 0)  -->
<!DOCTYPE svg PUBLIC "-//W3C//DTD SVG 1.1//EN" "http://www.w3.org/Graphics/SVG/1.1/DTD/svg11.dtd">
<svg version="1.1" id="Layer_1" xmlns="http://www.w3.org/2000/svg" xmlns:xlink="http://www.w3.org/1999/xlink" x="0px" y="0px"
	 width="512px" height="512px" viewBox="0 0 512 512" enable-background="new 0 0 512 512" xml:space="preserve">
<g id="Layer_1_1_">
	<path fill="#68544F" d="M324.848,399.143v88.22c0,7.709-6.057,13.77-13.77,13.77s-13.77-6.061-13.77-13.77v-88.22
		c0-7.709,6.057-13.77,13.77-13.77S324.848,391.434,324.848,399.143z"/>
	<path fill="#3E322E" d="M324.848,399.143v88.22c0,7.709-6.057,13.77-13.77,13.77V385.373
		C318.791,385.373,324.848,391.434,324.848,399.143z"/>
	<path fill="#F4D44A" d="M427.566,236.155c4.96-10.463,7.438-22.031,7.438-33.872c0-36.901-23.685-68.023-57.556-78.486
		c1.649-5.784,2.478-12.762,2.478-18.818c0-38.003-30.846-68.848-68.848-68.848s-68.848,30.845-68.848,68.848
		c0,6.056,0.829,13.034,2.478,18.818c-33.871,10.463-57.556,41.585-57.556,78.486c0,11.84,2.478,23.408,7.437,33.872
		c-37.182,13.77-62.515,49.022-62.515,90.054c0,53.147,43.238,96.387,96.387,96.387h165.234c53.147,0,97.305-43.238,97.305-96.387
		C491,285.177,464.748,249.924,427.566,236.155z"/>
	<path fill="#D8A432" d="M491,326.209c0,53.147-44.156,96.387-97.305,96.387h-82.617V36.131c38.002,0,68.848,30.845,68.848,68.848
		c0,6.056-0.828,13.034-2.478,18.818c33.871,10.463,57.556,41.585,57.556,78.486c0,11.84-2.478,23.408-7.438,33.872
		C464.748,249.924,491,285.177,491,326.209z"/>
	<path fill="#B9DD39" d="M317.41,216.155c4.96-10.463,7.438-22.031,7.438-33.872c0-36.901-23.685-68.023-57.556-78.486
		c1.649-5.784,2.478-12.762,2.478-18.818c0-38.003-30.846-68.848-68.848-68.848s-68.848,30.845-68.848,68.848
		c0,6.056,0.829,13.034,2.478,18.818c-33.871,10.463-57.556,41.585-57.556,78.486c0,11.84,2.478,23.408,7.437,33.872
		C47.251,229.924,21,265.177,21,306.209c0,53.147,44.156,96.387,97.305,96.387h165.234c53.148,0,96.387-43.238,96.387-96.387
		C379.926,265.177,354.592,229.924,317.41,216.155z"/>
	<path fill="#93BF00" d="M379.926,306.209c0,53.147-43.238,96.387-96.387,96.387h-82.617V16.131
		c38.002,0,68.848,30.845,68.848,68.848c0,6.056-0.828,13.034-2.478,18.818c33.871,10.463,57.556,41.585,57.556,78.486
		c0,11.84-2.478,23.408-7.438,33.872C354.592,229.924,379.926,265.177,379.926,306.209z"/>
	<path fill="#725D57" d="M262.057,263.523l-47.365,23.686v185.152c0,7.709-6.056,13.77-13.77,13.77
		c-7.714,0-13.77-6.061-13.77-13.77V342.286l-47.365-23.685c-6.885-3.578-9.643-11.845-6.336-18.453
		c3.579-6.886,11.84-9.64,18.449-6.332l35.252,17.623v-79.311l-47.365-23.685c-6.885-3.579-9.643-11.844-6.336-18.453
		c3.579-6.885,11.84-9.639,18.449-6.333l35.252,17.624v-32.771c0-7.713,6.056-13.77,13.77-13.77c7.714,0,13.77,6.056,13.77,13.77
		v87.849l35.252-17.624c6.609-3.306,14.871-0.552,18.449,6.333C271.699,251.679,268.941,259.945,262.057,263.523z"/>
	<path fill="#53433F" d="M262.057,263.523l-47.365,23.686v185.152c0,7.709-6.056,13.77-13.77,13.77V154.744
		c7.713,0,13.77,6.056,13.77,13.77v87.849l35.252-17.624c6.609-3.306,14.871-0.552,18.449,6.333
		C271.699,251.679,268.941,259.945,262.057,263.523z"/>
</g>
<g id="soil_1_">
	<g id="soil">
		<path fill="#7E5D40" d="M512,499.223c0.011,6.939-8.945,12.664-20,12.777c-157.333,0-314.667,0-472,0
			c-11.055-0.113-20.01-5.838-20-12.777c0-2.13,0-4.26,0-6.389c0.011-6.938,8.851-13.941,19.784-15.489
			c155.848-20.46,316.584-20.46,472.432,0c10.933,1.548,19.773,8.551,19.784,15.489C512,494.963,512,497.093,512,499.223z"/>
	</g>
</g>
</svg>
