<?xml version="1.0" encoding="utf-8"?>
<!-- Generator: Adobe Illustrator 16.0.0, SVG Export Plug-In . SVG Version: 6.00 Build 0)  -->
<!DOCTYPE svg PUBLIC "-//W3C//DTD SVG 1.1//EN" "http://www.w3.org/Graphics/SVG/1.1/DTD/svg11.dtd">
<svg version="1.1" id="Layer_1" xmlns="http://www.w3.org/2000/svg" xmlns:xlink="http://www.w3.org/1999/xlink" x="0px" y="0px"
	 width="512px" height="512px" viewBox="0 0 512 512" enable-background="new 0 0 512 512" xml:space="preserve">
<g id="surface1">
	<path fill="#B9DD39" d="M256,371.225c-8.402,0-15,6.599-15,15v96.5v1.406c10.06-1.03,19.951-3.578,30-5.615v-92.291
		C271,377.822,264.402,371.225,256,371.225z"/>
	<path fill="#A8D32A" d="M256,481.725v-110.5c8.402,0,15,6.599,15,15v96.5"/>
	<path fill="#A8D32A" d="M265.902,254.123c-2.703-2.699-6.301-3.898-9.902-3.898c-3.601,0-7.199,1.199-9.902,3.898
		C244.602,255.322,211,286.924,211,326.225s33.602,69.898,35.098,71.103c2.703,2.698,6.301,3.897,9.902,3.897
		c3.602,0,7.199-1.199,9.902-3.897c1.496-1.203,35.098-31.802,35.098-71.103S267.398,255.322,265.902,254.123z"/>
	<path fill="#93BF00" d="M301,326.225c0,39.301-33.602,69.898-35.098,71.103c-2.703,2.698-6.301,3.897-9.902,3.897v-151
		c3.602,0,7.199,1.199,9.902,3.898C267.398,255.322,301,286.924,301,326.225z"/>
</g>
<g>
	<path fill="#7E5D40" d="M512,499.223c0.011,6.939-8.945,12.664-20,12.777c-157.333,0-314.667,0-472,0
		c-11.055-0.113-20.01-5.838-20-12.777c0-2.13,0-4.26,0-6.389c0.011-6.938,8.851-13.941,19.784-15.489
		c155.848-20.46,316.584-20.46,472.432,0c10.933,1.548,19.773,8.551,19.784,15.489C512,494.963,512,497.093,512,499.223z"/>
</g>
</svg>
