<?xml version="1.0" encoding="utf-8"?>
<!-- Generator: Adobe Illustrator 16.0.0, SVG Export Plug-In . SVG Version: 6.00 Build 0)  -->
<!DOCTYPE svg PUBLIC "-//W3C//DTD SVG 1.1//EN" "http://www.w3.org/Graphics/SVG/1.1/DTD/svg11.dtd">
<svg version="1.1" id="Layer_1" xmlns="http://www.w3.org/2000/svg" xmlns:xlink="http://www.w3.org/1999/xlink" x="0px" y="0px"
	 width="512px" height="512px" viewBox="0 0 512 512" enable-background="new 0 0 512 512" xml:space="preserve">
<g id="plants">
	<path fill="#A8D32A" d="M343.5,396.053c-34.518,0-62.498-27.981-62.498-62.5c0-6.908,5.585-12.51,12.493-12.51
		c34.519,0,62.497,27.981,62.497,62.5C355.992,390.451,350.408,396.053,343.5,396.053z"/>
	<path fill="#A8D32A" d="M343.5,296.051c-34.518,0-62.498-27.988-62.498-62.508c0-6.898,5.585-12.493,12.493-12.493
		c34.519,0,62.497,27.98,62.497,62.498C355.992,290.449,350.408,296.051,343.5,296.051z"/>
	<path fill="#93BF00" d="M368.502,396.053c34.521,0,62.498-27.981,62.498-62.5c0-6.908-5.602-12.51-12.492-12.51
		c-34.521,0-62.516,27.981-62.516,62.5C355.992,390.451,361.598,396.053,368.502,396.053z"/>
	<path fill="#93BF00" d="M368.502,296.051c34.521,0,62.498-27.988,62.498-62.508c0-6.898-5.602-12.493-12.492-12.493
		c-34.521,0-62.516,27.98-62.516,62.498C355.992,290.449,361.598,296.051,368.502,296.051z"/>
	<path fill="#B9DD39" d="M368.502,233.543v250.01c0,6.987-5.501,12.49-12.51,12.49c-6.993,0-12.492-5.503-12.492-12.49v-250.01
		c0-7.001,5.499-12.493,12.492-12.493C363.001,221.05,368.502,226.542,368.502,233.543z"/>
	<path fill="#A8D32A" d="M355.992,496.043V221.05c7.009,0,12.51,5.492,12.51,12.493v250.01
		C368.502,490.54,363.001,496.043,355.992,496.043z"/>
	<path fill="#A8D32A" d="M364.247,123.467c-2.244-2.251-5.241-3.248-8.255-3.248c-2.998,0-5.99,0.997-8.236,3.248
		c-1.26,0.998-29.258,27.333-29.258,60.081s27.998,58.248,29.258,59.249c2.246,2.25,5.238,3.249,8.236,3.249
		c3.014,0,6.011-0.999,8.255-3.249c1.257-1,29.258-26.5,29.258-59.249S365.504,124.464,364.247,123.467z"/>
	<path fill="#93BF00" d="M393.505,183.548c0,32.748-28.001,58.248-29.258,59.249c-2.244,2.25-5.241,3.249-8.255,3.249V120.219
		c3.014,0,6.011,0.997,8.255,3.248C365.504,124.464,393.505,150.8,393.505,183.548z"/>
	<path fill="#A8D32A" d="M143.498,396.053c-34.518,0-62.498-27.981-62.498-62.5c0-6.908,5.594-12.51,12.501-12.51
		c34.519,0,62.498,27.981,62.498,62.5C155.999,390.451,150.406,396.053,143.498,396.053z"/>
	<path fill="#A8D32A" d="M143.498,296.051C108.98,296.051,81,268.063,81,233.543c0-6.898,5.594-12.493,12.501-12.493
		c34.519,0,62.498,27.98,62.498,62.498C155.999,290.449,150.406,296.051,143.498,296.051z"/>
	<path fill="#93BF00" d="M168.5,396.053c34.518,0,62.498-27.981,62.498-62.5c0-6.908-5.594-12.51-12.501-12.51
		c-34.519,0-62.497,27.981-62.497,62.5C155.999,390.451,161.592,396.053,168.5,396.053z"/>
	<path fill="#93BF00" d="M168.5,296.051c34.518,0,62.498-27.988,62.498-62.508c0-6.898-5.594-12.493-12.501-12.493
		c-34.519,0-62.497,27.98-62.497,62.498C155.999,290.449,161.592,296.051,168.5,296.051z"/>
	<path fill="#B9DD39" d="M168.5,233.543v250.01c0,6.987-5.499,12.49-12.501,12.49s-12.501-5.503-12.501-12.49v-250.01
		c0-7.001,5.499-12.493,12.501-12.493S168.5,226.542,168.5,233.543z"/>
	<path fill="#A8D32A" d="M155.999,496.043V221.05c7.002,0,12.501,5.492,12.501,12.493v250.01
		C168.5,490.54,163.001,496.043,155.999,496.043z"/>
	<path fill="#A8D32A" d="M164.253,123.467c-2.255-2.251-5.247-3.248-8.254-3.248c-2.998,0-6,0.997-8.255,3.248
		c-1.241,0.998-29.24,27.333-29.24,60.081s28,58.248,29.24,59.249c2.255,2.25,5.257,3.249,8.255,3.249
		c3.007,0,5.999-0.999,8.254-3.249c1.249-1,29.25-26.5,29.25-59.249S165.501,124.464,164.253,123.467z"/>
	<path fill="#93BF00" d="M193.502,183.548c0,32.748-28.001,58.248-29.25,59.249c-2.255,2.25-5.247,3.249-8.254,3.249V120.219
		c3.007,0,5.999,0.997,8.254,3.248C165.501,124.464,193.502,150.8,193.502,183.548z"/>
</g>
<g id="soil">
	<path fill="#7E5D40" d="M512,499.223c0.011,6.939-8.945,12.664-20,12.777c-157.333,0-314.667,0-472,0
		c-11.055-0.113-20.01-5.838-20-12.777c0-2.13,0-4.26,0-6.389c0.011-6.938,8.851-13.941,19.784-15.489
		c155.848-20.46,316.584-20.46,472.432,0c10.933,1.548,19.773,8.551,19.784,15.489C512,494.963,512,497.093,512,499.223z"/>
</g>
</svg>
