<?xml version="1.0" encoding="utf-8"?>
<!-- Generator: Adobe Illustrator 16.0.0, SVG Export Plug-In . SVG Version: 6.00 Build 0)  -->
<!DOCTYPE svg PUBLIC "-//W3C//DTD SVG 1.1//EN" "http://www.w3.org/Graphics/SVG/1.1/DTD/svg11.dtd">
<svg version="1.1" id="Layer_1" xmlns="http://www.w3.org/2000/svg" xmlns:xlink="http://www.w3.org/1999/xlink" x="0px" y="0px"
	 width="50px" height="50px" viewBox="231 435 50 50" enable-background="new 231 435 50 50" xml:space="preserve">
<g id="Layer_1_1_">
	<path fill="#68544F" d="M262.738,471.82v8.638c0,0.751-0.591,1.348-1.348,1.348s-1.348-0.597-1.348-1.348v-8.638
		c0-0.751,0.591-1.348,1.348-1.348S262.738,471.069,262.738,471.82z"/>
	<path fill="#3E322E" d="M262.738,471.82v8.638c0,0.751-0.591,1.348-1.348,1.348v-11.333
		C262.147,470.473,262.738,471.069,262.738,471.82z"/>
	<path fill="#F4D44A" d="M272.791,457.532c0.488-1.021,0.729-2.156,0.729-3.312c0-3.614-2.32-6.661-5.631-7.682
		c0.157-0.568,0.24-1.25,0.24-1.842c0-3.721-3.02-6.738-6.738-6.738s-6.739,3.018-6.739,6.738c0,0.592,0.083,1.273,0.243,1.842
		c-3.314,1.021-5.633,4.067-5.633,7.682c0,1.155,0.243,2.291,0.728,3.312c-3.64,1.348-6.118,4.799-6.118,8.817
		c0,5.198,4.231,9.434,9.434,9.434h16.172c5.201,0,9.523-4.235,9.523-9.434C279,462.331,276.433,458.88,272.791,457.532z"/>
	<path fill="#D8A432" d="M279,466.35c0,5.198-4.322,9.434-9.523,9.434h-8.086v-37.824c3.719,0,6.738,3.018,6.738,6.738
		c0,0.592-0.083,1.273-0.24,1.842c3.311,1.021,5.631,4.067,5.631,7.682c0,1.155-0.24,2.291-0.729,3.312
		C276.433,458.88,279,462.331,279,466.35z"/>
	<path fill="#B9DD39" d="M262.01,455.577c0.488-1.024,0.729-2.156,0.729-3.315c0-3.609-2.32-6.658-5.631-7.682
		c0.157-0.567,0.24-1.251,0.24-1.842c0-3.72-3.019-6.738-6.738-6.738s-6.738,3.019-6.738,6.738c0,0.591,0.083,1.274,0.242,1.842
		c-3.314,1.023-5.633,4.072-5.633,7.682c0,1.158,0.243,2.291,0.728,3.315c-3.64,1.347-6.208,4.8-6.208,8.813
		c0,5.201,4.321,9.434,9.524,9.434h16.171c5.201,0,9.434-4.231,9.434-9.434C268.129,460.377,265.651,456.924,262.01,455.577z"/>
	<path fill="#93BF00" d="M268.129,464.391c0,5.201-4.232,9.434-9.434,9.434h-8.086V436c3.72,0,6.738,3.019,6.738,6.738
		c0,0.591-0.083,1.274-0.24,1.842c3.311,1.023,5.631,4.072,5.631,7.682c0,1.158-0.24,2.291-0.729,3.315
		C265.651,456.924,268.129,460.377,268.129,464.391z"/>
	<path fill="#725D57" d="M256.591,460.213l-4.633,2.321v18.118c0,0.754-0.592,1.348-1.348,1.348s-1.348-0.594-1.348-1.348v-12.729
		l-4.634-2.321c-0.674-0.349-0.945-1.16-0.622-1.806c0.351-0.674,1.159-0.943,1.804-0.619l3.451,1.722v-7.758l-4.634-2.321
		c-0.674-0.35-0.945-1.159-0.622-1.805c0.351-0.674,1.159-0.943,1.804-0.621l3.451,1.724v-3.206c0-0.755,0.592-1.348,1.348-1.348
		s1.348,0.593,1.348,1.348v8.597l3.451-1.724c0.645-0.322,1.455-0.053,1.804,0.621C257.537,459.052,257.265,459.863,256.591,460.213
		z"/>
	<path fill="#53433F" d="M256.591,460.213l-4.633,2.321v18.118c0,0.754-0.592,1.348-1.348,1.348v-32.434
		c0.756,0,1.348,0.591,1.348,1.348v8.597l3.451-1.723c0.645-0.323,1.455-0.054,1.804,0.62
		C257.537,459.052,257.265,459.863,256.591,460.213z"/>
</g>
</svg>
