<?xml version="1.0" encoding="utf-8"?>
<!-- Generator: Adobe Illustrator 16.0.0, SVG Export Plug-In . SVG Version: 6.00 Build 0)  -->
<!DOCTYPE svg PUBLIC "-//W3C//DTD SVG 1.1//EN" "http://www.w3.org/Graphics/SVG/1.1/DTD/svg11.dtd">
<svg version="1.1" id="Layer_1" xmlns="http://www.w3.org/2000/svg" xmlns:xlink="http://www.w3.org/1999/xlink" x="0px" y="0px"
	 width="600px" height="600px" viewBox="45.5 -165.5 600 600" enable-background="new 45.5 -165.5 600 600" xml:space="preserve">
<g id="Step_1">
	<g id="surface1_1_">
		<path fill="#B9DD39" d="M345.509,273.441c-10.264,0-18.325,8.084-18.325,18.335v117.901v1.728
			c12.291-1.25,24.389-4.356,36.662-6.827V291.776C363.847,281.498,355.771,273.441,345.509,273.441z"/>
		<path fill="#A8D32A" d="M345.509,408.462V273.441c10.262,0,18.337,8.084,18.337,18.335v117.901"/>
		<path fill="#A8D32A" d="M357.616,130.347c-3.325-3.303-7.708-4.754-12.107-4.754c-4.401,0-8.801,1.451-12.094,4.754
			c-1.831,1.479-42.915,40.077-42.915,88.104c0,48.036,41.052,85.41,42.915,86.877c3.293,3.33,7.693,4.764,12.094,4.764
			c4.399,0,8.799-1.434,12.107-4.764c1.799-1.467,42.884-38.841,42.884-86.877C400.5,170.424,359.448,131.825,357.616,130.347z"/>
		<path fill="#93BF00" d="M400.5,218.45c0,48.036-41.052,85.41-42.884,86.877c-3.325,3.33-7.708,4.764-12.107,4.764V125.593
			c4.399,0,8.799,1.451,12.107,4.754C359.448,131.825,400.5,170.424,400.5,218.45z"/>
	</g>
</g>
</svg>
