<?xml version="1.0" encoding="utf-8"?>
<!-- Generator: Adobe Illustrator 16.0.0, SVG Export Plug-In . SVG Version: 6.00 Build 0)  -->
<!DOCTYPE svg PUBLIC "-//W3C//DTD SVG 1.1//EN" "http://www.w3.org/Graphics/SVG/1.1/DTD/svg11.dtd">
<svg version="1.1" id="Layer_1" xmlns="http://www.w3.org/2000/svg" xmlns:xlink="http://www.w3.org/1999/xlink" x="0px" y="0px"
	 width="50px" height="50px" viewBox="229 461 50 50" enable-background="new 229 461 50 50" xml:space="preserve">
<g id="plants">
	<path fill="#A8D32A" d="M261.75,500.618c-3.058,0-5.532-2.478-5.532-5.535c0-0.61,0.49-1.107,1.104-1.107
		c3.054,0,5.536,2.476,5.536,5.533C262.857,500.121,262.362,500.618,261.75,500.618z"/>
	<path fill="#A8D32A" d="M261.75,491.759c-3.058,0-5.532-2.476-5.532-5.533c0-0.612,0.49-1.107,1.104-1.107
		c3.054,0,5.536,2.482,5.536,5.537C262.857,491.264,262.362,491.759,261.75,491.759z"/>
	<path fill="#93BF00" d="M263.968,500.618c3.057,0,5.532-2.478,5.532-5.535c0-0.61-0.497-1.107-1.107-1.107
		c-3.058,0-5.535,2.476-5.535,5.533C262.857,500.121,263.354,500.618,263.968,500.618z"/>
	<path fill="#93BF00" d="M263.968,491.759c3.057,0,5.532-2.476,5.532-5.533c0-0.612-0.497-1.107-1.107-1.107
		c-3.058,0-5.535,2.482-5.535,5.537C262.857,491.264,263.354,491.759,263.968,491.759z"/>
	<path fill="#B9DD39" d="M263.968,486.226v22.143c0,0.62-0.492,1.107-1.11,1.107c-0.623,0-1.107-0.487-1.107-1.107v-22.143
		c0-0.618,0.484-1.107,1.107-1.107C263.476,485.118,263.968,485.607,263.968,486.226z"/>
	<path fill="#A8D32A" d="M262.857,509.476v-24.357c0.618,0,1.11,0.489,1.11,1.107v22.143
		C263.968,508.988,263.476,509.476,262.857,509.476z"/>
	<path fill="#A8D32A" d="M263.587,476.478c-0.195-0.199-0.461-0.29-0.729-0.29c-0.267,0-0.532,0.091-0.731,0.29
		c-0.111,0.084-2.594,2.422-2.594,5.321c0,2.901,2.482,5.16,2.594,5.244c0.199,0.199,0.465,0.29,0.731,0.29
		c0.268,0,0.534-0.091,0.729-0.29c0.114-0.084,2.594-2.344,2.594-5.244C266.181,478.9,263.7,476.562,263.587,476.478z"/>
	<path fill="#93BF00" d="M266.179,481.799c0,2.9-2.479,5.16-2.592,5.244c-0.195,0.199-0.462,0.29-0.73,0.29v-11.146
		c0.268,0,0.535,0.091,0.73,0.29C263.7,476.562,266.179,478.899,266.179,481.799z"/>
	<path fill="#A8D32A" d="M244.037,500.618c-3.058,0-5.537-2.478-5.537-5.535c0-0.61,0.495-1.107,1.108-1.107
		c3.058,0,5.532,2.476,5.532,5.533C245.142,500.121,244.648,500.618,244.037,500.618z"/>
	<path fill="#A8D32A" d="M244.037,491.759c-3.058,0-5.537-2.476-5.537-5.533c0-0.612,0.495-1.107,1.108-1.107
		c3.058,0,5.532,2.482,5.532,5.537C245.142,491.264,244.648,491.759,244.037,491.759z"/>
	<path fill="#93BF00" d="M246.25,500.618c3.058,0,5.537-2.478,5.537-5.535c0-0.61-0.495-1.107-1.108-1.107
		c-3.059,0-5.537,2.476-5.537,5.533C245.142,500.121,245.638,500.618,246.25,500.618z"/>
	<path fill="#93BF00" d="M246.25,491.759c3.058,0,5.537-2.476,5.537-5.533c0-0.612-0.495-1.107-1.108-1.107
		c-3.059,0-5.537,2.482-5.537,5.537C245.142,491.264,245.638,491.759,246.25,491.759z"/>
	<path fill="#B9DD39" d="M246.25,486.226v22.143c0,0.62-0.487,1.107-1.108,1.107c-0.619,0-1.104-0.487-1.104-1.107v-22.143
		c0-0.618,0.484-1.107,1.104-1.107C245.763,485.118,246.25,485.607,246.25,486.226z"/>
	<path fill="#A8D32A" d="M245.142,509.476v-24.357c0.622,0,1.108,0.489,1.108,1.107v22.143
		C246.25,508.988,245.763,509.476,245.142,509.476z"/>
	<path fill="#A8D32A" d="M245.875,476.478c-0.2-0.199-0.466-0.29-0.734-0.29c-0.263,0-0.528,0.091-0.729,0.29
		c-0.111,0.084-2.59,2.422-2.59,5.321c0,2.901,2.479,5.16,2.59,5.244c0.2,0.199,0.467,0.29,0.729,0.29
		c0.269,0,0.533-0.091,0.734-0.29c0.108-0.084,2.591-2.344,2.591-5.244C248.466,478.9,245.985,476.562,245.875,476.478z"/>
	<path fill="#93BF00" d="M248.463,481.799c0,2.9-2.478,5.16-2.587,5.244c-0.2,0.199-0.467,0.29-0.734,0.29v-11.146
		c0.268,0,0.533,0.091,0.734,0.29C245.985,476.562,248.463,478.899,248.463,481.799z"/>
</g>
</svg>
